<svg width="100%" height="100%" id="svg" viewBox="0 0 1440 600" xmlns="http://www.w3.org/2000/svg" class="transition duration-300 ease-in-out delay-150"><path d="M 0,600 C 0,600 0,200 0,200 C 114.57416267942583,229.95215311004785 229.14832535885165,259.9043062200957 329,256 C 428.85167464114835,252.09569377990434 513.9808612440193,214.33492822966508 608,209 C 702.0191387559807,203.66507177033492 804.9282296650717,230.755980861244 888,225 C 971.0717703349283,219.244019138756 1034.3062200956938,180.64114832535884 1123,171 C 1211.6937799043062,161.35885167464116 1325.846889952153,180.6794258373206 1440,200 C 1440,200 1440,600 1440,600 Z" stroke="none" stroke-width="0" fill="#09406488" class="transition-all duration-300 ease-in-out delay-150 path-0" transform="rotate(-180 720 300)"></path><path d="M 0,600 C 0,600 0,400 0,400 C 119.10047846889952,374.5933014354067 238.20095693779905,349.1866028708134 331,343 C 423.79904306220095,336.8133971291866 490.2966507177034,349.8468899521531 584,349 C 677.7033492822966,348.1531100478469 798.6124401913876,333.42583732057415 897,359 C 995.3875598086124,384.57416267942585 1071.2535885167465,450.44976076555025 1158,464 C 1244.7464114832535,477.55023923444975 1342.3732057416269,438.77511961722485 1440,400 C 1440,400 1440,600 1440,600 Z" stroke="none" stroke-width="0" fill="#094064ff" class="transition-all duration-300 ease-in-out delay-150 path-1" transform="rotate(-180 720 300)"></path></svg>